<?xml version="1.0" encoding="utf-8"?>
<!-- Generator: Adobe Illustrator 16.0.0, SVG Export Plug-In . SVG Version: 6.00 Build 0)  -->
<!DOCTYPE svg PUBLIC "-//W3C//DTD SVG 1.1//EN" "http://www.w3.org/Graphics/SVG/1.1/DTD/svg11.dtd">
<svg version="1.1" id="Capa_2" xmlns="http://www.w3.org/2000/svg" xmlns:xlink="http://www.w3.org/1999/xlink" viewBox="0 0 512 512" xml:space="preserve">
<path fill="#FF6600" d="M502.21,316.485C468.118,452.852,329.716,536.3,193.349,502.209
	C56.983,468.116-26.466,329.714,7.626,193.349C41.719,56.983,180.119-26.466,316.486,7.626
	C452.852,41.717,536.301,179.611,502.21,316.485z"/>
<path fill="#FFFFFF" d="M367.368,218.281c5.091-34.092-20.861-52.409-55.969-64.112l11.702-45.795l-27.987-7.123l-11.702,44.778
	c-7.123-2.035-14.756-3.562-22.389-5.088l11.194-45.286l-27.985-7.125l-11.702,45.796c-6.106-1.526-12.213-2.545-17.81-4.071l0,0
	l-38.163-9.667l-7.633,30.021c0,0,20.862,4.578,20.354,5.088c11.194,3.053,13.229,10.176,13.229,16.282l-13.229,52.409
	c1.019,0,2.035,0.51,3.053,1.019c-1.019,0-2.035-0.508-3.053-0.508l-18.318,73.271c-1.526,3.562-5.089,8.649-12.721,6.614
	c0.508,0.509-20.354-5.088-20.354-5.088l-13.737,32.058l36.634,9.157c6.615,1.526,13.229,3.563,19.846,5.09L168.925,392.3
	l27.987,7.125l11.703-45.796c7.633,2.037,15.264,4.071,22.389,5.599l-11.194,45.794l27.985,7.125l11.703-46.305
	c47.831,9.16,83.448,5.597,98.714-37.652c12.211-34.602-0.51-54.954-25.441-67.675C349.56,255.425,363.299,243.214,367.368,218.281z
	 M303.256,307.835c-8.649,34.6-67.164,15.774-85.992,11.194l15.266-61.568C251.355,262.549,312.416,271.709,303.256,307.835z
	 M311.907,217.772c-8.141,31.548-56.48,15.774-72.254,11.703l13.739-55.97C269.165,177.574,320.048,185.207,311.907,217.772z"/>
</svg>
