<?xml version="1.0" encoding="utf-8"?>
<!-- Generator: Adobe Illustrator 16.0.0, SVG Export Plug-In . SVG Version: 6.00 Build 0)  -->
<!DOCTYPE svg PUBLIC "-//W3C//DTD SVG 1.1//EN" "http://www.w3.org/Graphics/SVG/1.1/DTD/svg11.dtd">
<svg version="1.1" id="Capa_2" xmlns="http://www.w3.org/2000/svg" xmlns:xlink="http://www.w3.org/1999/xlink" viewBox="0 2 512 499" xml:space="preserve">
<path fill="#CC0000" d="M90.129,250.467c9.633-83.893,52.583-154.137,149.722-201.903L297.251,2l5.218,44.154
	c58.203-7.225,98.745,18.866,127.646,65.829L512,99.138l-38.132,83.893c10.035,65.83-11.24,130.856-49.774,196.285
	c13.246,10.034,20.472,24.083,7.627,50.576C339.8,564.762,76.481,506.157,90.129,250.467z"/>
<path fill="#660000" d="M143.514,301.845c40.944,38.937,94.33,25.691,141.293-14.851c7.226-6.021,17.261-7.226,25.288-2.408
	c60.211,35.323,12.444,151.328-44.153,162.565c-65.83,13.648-112.393-70.646-69.042-114.8
	C181.647,333.557,158.367,326.733,143.514,301.845z"/>
<path fill="#660000" d="M288.018,187.045c0,0-21.273,32.915,1.205,44.155c22.478,11.239,48.568-33.718,48.568-33.718
	s-28.498,31.309-40.941,24.887c-12.443-6.422-2.008-43.352-2.008-43.352l-8.831,20.472L288.018,187.045z"/>
<path fill="#660000" d="M187.268,110.378c0,0-21.676,29.302-6.422,43.351c14.851,14.049,42.548-26.493,42.548-26.493
	S196.5,154.13,188.07,146.103c-8.027-8.028,6.021-42.95,6.021-42.95l-10.436,19.669L187.268,110.378z"/>
<path fill="#F5F1E6" d="M136.29,175.806c79.076-10.036,142.811-42.078,166.091-130.387c55.865-7.215,101.143,18.625,128.839,66.392
	c-102.358,4.013-166.885,43.123-190.566,116.578L136.29,175.806z"/>
<path fill="#FFFF99" d="M24.7,232.805c-42.147,26.493-10.837,67.435-10.837,67.435s30.506,48.169,71.449,62.619
	c40.942,14.451,63.822,0,63.822,0c11.24-13.647,13.648-28.9,0-47.365c0,0-30.908,0.401-44.956-12.845
	c-14.049-13.246-18.064-48.168-18.064-48.168S66.847,206.312,24.7,232.805z"/>
<path fill="#FFFFFF" d="M200.113,332.754c7.226,12.041,16.055,22.88,28.499,30.507c6.422-12.043,10.437-22.078,12.043-30.106
	c6.422,6.824,16.055,10.437,26.895,12.445c2.005-9.234,3.611-18.063,2.809-26.895c7.626,4.415,16.458,6.02,25.689,5.619
	c-0.401-10.437-2.408-19.668-6.021-27.697c4.817,3.212,8.831,4.416,12.043,3.212c0-5.218-1.204-10.437-5.621-16.858
	C264.738,317.902,232.625,330.346,200.113,332.754z"/>
<path fill="#660033" d="M197.704,337.973c-29.302,35.322,2.409,109.582,56.597,105.165c61.014-4.816,106.772-103.159,56.597-151.326
	c-0.803,6.02-3.211,10.437-8.026,12.041l-6.021-1.204c3.612,9.231,4.816,17.261,4.415,24.888
	c-9.232,1.605-18.464,1.202-27.295-3.212c1.604,7.627,0,16.858-3.212,26.091c-10.437,1.606-19.268-2.407-27.696-9.232
	c-2.008,9.634-6.825,18.865-12.846,27.697C217.774,361.655,206.936,351.618,197.704,337.973z"/>
<path fill="#CC9900" d="M2.624,265.319c0.401,24.084,16.057,46.964,39.738,69.041l24.084,19.267
	C31.123,306.663,45.975,275.755,2.624,265.319z"/>
<path fill="#CC9900" d="M69.658,347.605c11.641-18.866,20.069-36.929,22.077-52.182C83.707,311.078,76.481,328.739,69.658,347.605z"
	/>
<path fill="#CC9900" d="M86.918,347.204c6.823-14.853,10.838-28.901,8.831-40.942C91.735,318.303,88.925,332.352,86.918,347.204z"/>
<path fill="#CC9900" d="M101.367,351.218c5.621-11.641,8.43-22.479,5.621-31.711C103.776,329.142,102.171,339.979,101.367,351.218z"
	/>
<path fill="#CC9900" d="M118.227,328.338c-2.007,6.825-3.211,14.45-4.013,22.479C118.227,342.788,120.234,334.76,118.227,328.338z"
	/>
<path fill="#990033" d="M89.727,156.538c79.478-1.204,146.511,36.929,185.848,79.479c-2.81,2.006-6.823,4.014-10.837,6.422
	L89.727,156.538z"/>
<path fill="#660000" d="M89.727,156.538c67.034,25.289,125.238,54.19,174.608,85.901c-32.512,21.273-71.449,34.52-121.623,33.316
	C110.198,240.431,98.558,199.088,89.727,156.538z"/>
<path fill="#FF6699" d="M319.329,384.133c0,0-22.078-18.465-36.127-0.401c-14.049,18.063-14.852,33.316-14.852,33.316
	s-28.9-5.62-34.922,2.007c-6.021,7.626,2.007,20.47,2.007,20.47C278.787,443.541,308.891,421.865,319.329,384.133z"/>
<polygon fill="#450F1D" points="98.157,185.44 128.663,205.51 125.854,253.679 119.03,242.439 123.846,208.32 "/>
<polygon fill="#450F1D" points="229.013,242.439 163.987,224.778 169.205,273.347 182.451,273.347 171.614,234.41 "/>
</svg>
