<?xml version="1.0" encoding="utf-8"?>
<!-- Generator: Adobe Illustrator 16.0.0, SVG Export Plug-In . SVG Version: 6.00 Build 0)  -->
<!DOCTYPE svg PUBLIC "-//W3C//DTD SVG 1.1//EN" "http://www.w3.org/Graphics/SVG/1.1/DTD/svg11.dtd">
<svg version="1.1" id="Capa_2" xmlns="http://www.w3.org/2000/svg" xmlns:xlink="http://www.w3.org/1999/xlink" viewBox="0 0 512 354" xml:space="preserve">
<path fill="#5E0808" d="M46.195,202.36c-22.229-23.762-19.162-102.33,36.793-92.365c67.07,11.88-1.534,95.813-1.534,95.813
	S68.424,226.12,46.195,202.36z M148.14,196.993c33.726,12.648,84.7-40.625,66.304-97.347c0,0-29.895-43.691-65.538,8.432
	C113.263,159.819,148.14,196.993,148.14,196.993z M252.769,232.636c0,0,104.245-90.448,40.241-114.593
	c-63.62-24.145-78.566,88.915-78.566,88.915C218.277,224.971,233.223,231.103,252.769,232.636z M291.094,283.993
	c21.462,19.545,52.123,7.28,97.73-55.573c9.198-27.595-23.38-62.854-51.356-48.673C276.915,216.924,270.399,251.416,291.094,283.993
	z M364.296,295.49c-41.391,12.648-48.673,36.025-37.176,65.537c22.995,9.963,44.841,6.132,64.388-24.146
	C406.071,310.82,391.508,300.089,364.296,295.49z M405.687,304.689c19.93-17.63,31.811-40.626,36.026-68.985
	c-15.33,22.229-31.427,42.156-50.589,45.989C398.79,286.675,404.156,293.575,405.687,304.689z M396.107,181.664
	c19.545-33.344,29.126-61.322,30.276-85.083c-13.414,30.277-28.743,54.039-45.992,67.835
	C388.057,167.1,393.424,172.848,396.107,181.664z M315.24,116.893c14.946-22.228,27.211-49.44,37.942-80.866
	c-20.313,29.127-39.476,53.272-56.338,68.602C304.125,106.929,310.259,111.145,315.24,116.893z M217.126,78.951L259.283,0
	c-22.61,18.781-41.391,42.158-57.87,68.219C208.312,68.987,213.677,72.436,217.126,78.951z M105.599,95.048
	c0.767-18.779,8.431-41.775,21.079-67.07c-20.696,22.996-35.643,45.224-45.224,66.688C89.12,91.982,97.168,91.982,105.599,95.048z
	 M258.135,323.469l-24.145,9.196c0,0,14.18-20.695,13.03-21.461c-11.498-70.903-85.466-110.378-152.152-71.287l-4.982,28.361
	L76.854,250.65c0,0-50.589-37.56-72.051,21.846c-24.912,69.367,54.039,87.382,77.418,62.471c0.383,42.924,76.65,76.65,95.43,42.54
	c-4.215,19.93,14.18,67.455,44.458,69.753c32.959,2.3,60.555-10.732,84.699-42.541C316.006,382.873,309.49,345.315,258.135,323.469z
	"/>
<g>
	<path fill="#FFCCCC" d="M214.827,264.448c-1.15-0.768-1.533-1.151-1.917-1.535c0,0-0.766-0.383-1.532,0
		c-1.15,0.384-3.45,0.768-6.516,1.918c-2.682,1.149-4.216,1.533-4.216,1.533l0,0v-2.301c0-1.915,0-2.682,0-3.065
		s2.3-1.149,6.899-2.299c4.982-1.532,7.665-2.3,8.049-2.684c0.382-0.384,0.382-0.767,0.382-1.534c0,0,0-0.382,0-0.766v-0.384
		c-0.382-1.148-1.149-1.915-1.917-2.682c-0.383-0.383-0.766-0.383-1.916,0c-1.917,0.384-4.982,1.149-9.199,2.682
		c-3.833,1.149-6.132,2.3-7.665,3.067s-1.917,6.131-1.917,15.713c0,7.666,0.384,13.03,0.767,16.864l0,0v0.383c0,0,0,0,0,0.382
		c0.383,0.768,1.15,1.533,2.3,1.917c1.149,0.382,1.915,0.769,3.064,0.382c0.767,0,1.15-0.382,1.534-1.149
		c0.383-10.348,0.766-15.33,0.766-15.33s2.3-1.148,6.899-3.448c4.599-2.3,7.665-3.833,8.431-4.6
		c0.383-0.382,0.766-0.766,0.383-0.766v-0.383C216.36,265.597,215.976,265.214,214.827,264.448z"/>
	<path fill="#FFCCCC" d="M225.941,285.142c2.682,0.766,5.749,0.766,9.198,0.383c3.066-0.383,6.515-1.531,9.197-3.065
		c3.45-1.917,5.75-3.833,6.132-6.133c1.918-6.132,2.683-11.112,1.918-14.945c0-0.768-0.385-1.533-0.385-2.3
		c0-0.383-0.383-0.767-0.383-1.149c-1.533-3.451-4.215-6.133-7.665-8.048c-3.449-1.917-7.281-2.3-11.114-1.535
		c-4.217,0.767-8.049,2.685-10.731,6.132c-2.683,3.067-4.6,6.9-5.367,11.499c-0.382,2.683-0.382,4.982,0,7.281
		c0.384,1.15,0.384,2.299,0.767,3.449c0.383,0.767,0.383,1.533,0.768,2.302C220.576,282.076,222.874,283.993,225.941,285.142z
		 M225.558,262.148c1.916-4.216,5.365-6.899,9.964-7.667c1.916-0.382,3.833-0.382,5.75,0.385c2.298,0.766,3.833,1.915,4.598,3.449
		c0,0.384,0.385,0.384,0.385,0.767c0,0.384,0.383,0.767,0.383,1.532c0.382,2.683-0.383,6.132-2.301,9.964
		c-2.299,4.982-5.364,7.666-8.814,8.435c-1.916,0.382-3.832,0.382-5.366-0.386c-2.299-0.767-3.448-1.916-4.215-3.449
		c-0.383-0.382-0.383-1.149-0.767-1.531c-0.383-0.767-0.383-1.534-0.766-2.302C224.024,268.279,224.408,265.214,225.558,262.148z"/>
	<path fill="#FFCCCC" d="M254.302,277.86C254.302,277.86,254.302,278.243,254.302,277.86c0,0.384,0.385,0.767,0.385,0.767v0.386
		c0.766,1.15,1.532,1.53,3.064,1.915c1.149,0.382,1.918,0.382,3.067,0c0.383,0,0.766,0,1.15-0.385
		c3.063-1.148,6.514-2.299,10.346-3.448c5.367-2.299,7.665-3.448,7.665-4.215c0-1.149,0-2.302,0-3.45c0-1.15,0-1.917,0-2.299v-0.385
		v-0.382l0,0c0,0,0-0.384-0.383-0.384c-0.767-0.383-2.3-0.766-4.215-0.383c-1.149,0-1.917,0.383-2.684,1.149l0,0
		c0,0.384,0.384,0.384,0.384,0.766v0.383v0.384c0,1.15-0.384,1.916-1.533,2.299c-1.149,0.385-2.3,0.767-4.216,1.152
		c-1.533,0.382-2.301,0.382-2.683,0.382c-0.384,0-0.768,0-1.15-0.382l0,0c0,0,0,0,0-0.386v-0.382v-0.385
		c-0.382-15.712,0-23.378,0.767-23.378l0,0l0,0l0,0c-0.384-0.383-1.148-1.148-2.683-1.916c-1.533-0.767-2.684-1.532-3.833-1.149
		c-0.383,0-0.766,0.383-0.766,0.767c-0.384,1.15-1.149,6.898-1.533,17.247c-0.766,9.196-0.766,14.563-0.766,15.712
		C254.302,277.477,254.302,277.477,254.302,277.86z"/>
	<path fill="#FFCCCC" d="M282.279,273.261L282.279,273.261c0,0.385,0.385,0.767,0.385,0.767v0.384
		c0.766,1.148,1.532,1.533,3.065,1.915c1.149,0.384,1.916,0.384,3.065,0c0.384,0,0.768,0,1.15-0.382
		c3.065-1.149,6.516-2.299,10.347-3.449c5.367-2.301,7.667-3.45,7.667-4.217c0-1.148,0-2.299,0-3.448c0-1.15,0-1.918,0-2.301v-0.382
		v-0.385l0,0c0,0,0-0.382-0.385-0.382c-0.766-0.384-2.299-0.768-4.215-0.384c-1.15,0-1.917,0.384-2.683,1.15l0,0
		c0,0.382,0.382,0.382,0.382,0.765v0.384v0.384c0,1.15-0.382,1.917-1.532,2.3c-1.149,0.384-2.299,0.766-4.217,1.15
		c-1.533,0.382-2.299,0.382-2.682,0.382s-0.767,0-1.149-0.382l0,0c0,0,0,0,0-0.384v-0.383v-0.384
		c-0.384-15.713,0-23.377,0.767-23.377l0,0l0,0l0,0c-0.384-0.385-1.15-1.151-2.683-1.917c-1.534-0.767-2.684-1.533-3.833-1.15
		c-0.384,0-0.767,0.383-0.767,0.767c-0.384,1.15-1.15,6.898-1.533,17.247c-0.766,9.198-0.766,14.563-0.766,15.713
		C281.897,272.495,282.279,272.879,282.279,273.261z"/>
	<path fill="#FFCCCC" d="M308.723,260.997c0.386,0.766,0.386,1.532,0.767,2.299c1.534,3.067,3.833,5.366,6.9,6.133
		c2.682,0.766,5.747,0.766,9.197,0.383c3.066-0.383,6.514-1.533,9.198-3.066c3.45-1.915,5.749-3.833,6.132-6.132
		c1.916-6.133,2.683-11.114,1.916-14.946c0-0.766-0.383-1.533-0.383-2.3c0-0.382-0.383-0.765-0.383-1.15
		c-1.533-3.449-4.217-6.131-7.667-8.048c-3.447-1.917-7.281-2.299-11.113-1.533c-4.216,0.766-8.048,2.684-10.731,6.132
		c-2.684,3.066-4.598,6.899-5.365,11.499c-0.383,2.683-0.383,4.982,0,7.282C308.341,259.081,308.341,259.848,308.723,260.997z
		 M316.39,246.434c1.915-4.217,5.365-6.899,9.964-7.665c1.916-0.384,3.832-0.384,5.747,0.383c2.3,0.766,3.834,1.916,4.601,3.451
		c0,0.383,0.383,0.383,0.383,0.765c0,0.384,0.384,0.767,0.384,1.534c0.383,2.683-0.384,6.132-2.3,9.964
		c-2.299,4.982-5.365,7.664-8.814,8.431c-1.917,0.384-3.832,0.384-5.366-0.384c-2.299-0.765-3.449-1.915-4.215-3.447
		c-0.383-0.384-0.383-1.15-0.768-1.533c-0.383-0.766-0.383-1.533-0.766-2.301C314.855,252.566,315.24,249.499,316.39,246.434z"/>
	<path fill="#FFCCCC" d="M345.518,248.349c0.766,4.982,1.915,9.199,2.682,11.882c0.383,0.767,0.383,1.532,0.766,1.917
		c0.383,0.765,0.767,1.148,0.767,1.532c1.149,1.15,2.683,1.534,4.982,1.15c1.917-0.383,2.683-0.768,2.683-1.534
		c0-2.683,1.15-6.897,3.067-13.412c1.532-5.75,2.682-8.817,3.065-8.817l0,0c2.683,3.834,6.131,10.349,10.729,19.546
		c4.602-1.915,6.899-3.065,6.518-4.215l0,0l0,0l0,0l0,0l0,0c-0.386-1.15,0.766-6.515,3.066-15.332
		c2.682-9.964,3.831-14.947,3.831-15.329c-0.383-0.767-2.3-1.533-5.75-2.682l0,0c-0.382,0-1.915,3.832-4.214,11.113
		c-1.149,3.833-2.301,7.665-3.451,11.498l-8.047-17.629c-2.299,1.533-3.833,2.299-4.599,2.299c-0.384,0-0.384,0-0.384,0l0,0
		c-0.383,0-1.917,2.682-3.833,7.282c-1.533,3.447-3.064,7.281-4.597,10.729l0,0l0,0l0,0c0-0.382,0-0.765-0.386-1.149
		c-0.383-1.148-0.383-3.065-0.766-5.365c-0.384-3.832-0.384-6.131-0.384-6.899l0,0l0,0c-0.384-0.766-2.683-1.533-7.281-1.533
		c-0.384,0,0,4.218,1.148,12.265C345.133,246.051,345.133,247.199,345.518,248.349z"/>
	<path fill="#FFCCCC" d="M419.869,244.517v0.384c0,0.383,0,0.383,0.382,0.766c0.768,1.917,2.301,3.449,4.215,4.982
		c1.918,1.533,3.835,1.917,4.984,1.533c0.383,0,0.765-0.384,1.148-0.384c5.366-3.833,9.2-5.748,10.731-6.132
		c0.768,0,1.15,0,1.534,0.384c0.767,1.148,2.298,1.533,4.599,1.148c1.15,0,1.917-0.383,3.065-0.766l0,0c0,0,0-0.383-0.383-0.767
		c0-0.383-0.383-1.15-0.383-1.916c-0.383-3.067-0.767-7.666-0.767-13.798c0-9.197,0.767-14.18,2.299-14.947c0,0,0.384-0.383,0-0.383
		l0,0l0,0c-0.383-0.385-1.149-1.15-2.682-1.535c-1.533-0.766-2.684-0.766-3.451-0.766c-0.765,0-1.148,0.383-1.148,0.766
		c-0.383,1.535-1.149,5.367-2.3,11.882c-0.766,6.516-1.149,10.349-1.149,11.114l0,0l0,0l0,0c0,0.767-1.148,1.917-3.449,3.449
		c-2.682,1.532-4.981,2.682-6.9,3.067c-1.914,0.383-3.063,0-3.448-1.535c0-0.382,0-0.382-0.383-0.766
		c0-0.383-0.383-1.15-0.383-1.917c-0.384-2.681-0.384-6.515-0.384-11.497c0.384-6.516,0.767-9.964,1.149-10.348l0,0l0,0
		c0-0.383-0.766-0.766-1.533-1.15c-1.149-0.383-2.299-0.383-3.064-0.383c-1.15,0.383-1.918,1.149-2.3,2.683
		c-0.384,7.282-0.767,12.264-0.767,14.18C419.485,238.385,419.485,242.602,419.869,244.517
		C419.869,244.135,419.869,244.517,419.869,244.517z"/>
	<path fill="#FFCCCC" d="M451.294,224.205c0,0.766,0.385,1.533,0.385,2.298c0,0.384,0.383,0.767,0.383,0.767l0,0
		c0.384,1.15,1.533,1.533,3.449,2.301c1.533,0.383,3.066,0.383,4.599,0.383c0.383,0,0.767,0,0.767-0.383
		c0.768-0.383,2.301-0.768,4.982-1.15c3.067-0.382,5.749-0.767,8.049-0.767c2.683,0,4.217,0.767,4.601,1.534v0.383
		c0,0.383,0.382,0.767,0.382,1.15c0.384,2.299,0.384,3.832-0.382,4.982c-0.768,1.532-2.301,2.299-4.218,2.681
		c-0.383,0-0.383,0-0.766,0c-7.283,0.767-11.498,0-13.032-1.915c-0.383-0.384-0.383-0.384-1.148-0.384
		c-0.767,0-1.916,0.767-3.066,2.299c-0.767,1.15-1.532,1.917-1.148,2.683v0.384c0,0,0,0.383,0.382,0.383
		c4.599,3.45,10.73,4.6,18.014,3.45c4.216-0.767,7.664-2.682,10.348-6.132c2.299-2.682,3.448-5.366,3.066-7.664
		c0-0.384,0-0.384,0-0.767l-0.385-0.767c-0.383-0.766-0.383-1.533-0.766-1.916c-2.298-5.75-6.898-7.667-13.797-6.517
		c-0.384,0-0.767,0-1.15,0.385c-3.449,0.766-5.749,1.15-6.131,1.15c-3.066,0.383-4.982,0.383-5.749-0.384v-0.383l0,0
		c0,0,0,0,0-0.383c0-1.149,0.383-1.917,1.531-3.45c1.151-1.15,2.685-1.917,3.834-3.066c0.766-0.766,1.915-1.151,3.449-1.534
		c1.533-0.382,3.449-0.382,4.981,0c1.533,0.383,2.683,0.768,3.067,1.534c1.15,1.917,2.299,2.682,3.833,2.3
		c1.148,0,1.914-0.766,2.3-1.916c0.382-0.767,0.382-1.535,0.382-2.3v-0.384v-0.382c-0.382-0.767-0.768-1.15-1.15-1.533
		c-2.681-2.682-6.898-3.449-12.646-2.682c-2.302,0.383-4.983,1.15-7.283,2.299c-1.916,0.766-3.449,1.533-4.216,2.298
		c-1.149,1.149-2.299,2.3-3.064,3.45c-1.151,1.534-1.918,3.066-2.301,4.598C450.912,221.521,450.912,222.672,451.294,224.205z"/>
	<path fill="#FFCCCC" d="M500.352,234.169L500.352,234.169c-0.767-1.533-1.917-2.682-4.218-3.066c-0.382,0-0.766,0-1.531,0
		c-0.768,0-1.533,0.767-2.301,1.533v0.384l-0.766,1.916c-0.384,0.768-0.384,1.15-0.384,1.917c0,0.383,0,0.383,0,0.767v0.383
		c0.384,1.149,1.533,2.299,3.067,2.682c0.383,0,1.148,0,1.914,0c0.769,0,1.535-0.767,2.301-1.533
		c0.384-0.767,0.768-1.532,1.533-2.299l0.384-1.149c0-0.383,0-0.768,0-1.151C500.735,234.552,500.735,234.169,500.352,234.169z"/>
	<path fill="#FFCCCC" d="M506.484,203.892v-0.383l0,0c-0.385-0.767-1.149-1.15-2.299-0.767l0,0c-0.384,0-0.768,0-1.15,0.382
		c-0.768,0-1.918,0.384-3.066,0.384c-1.916,0.383-3.448,0.383-3.834,0.383c-2.299,0.383-3.448,1.15-3.448,1.916
		c0.384,6.516,0.384,10.349,0.384,10.732c0,0.767,0,3.449,0.383,7.666c0,2.298,0,3.448-0.383,3.833c0.766,0,1.533-0.385,2.299-0.385
		c1.534-0.383,3.066-0.383,4.217-0.766c1.149-0.384,1.916-0.384,1.916-0.384l0,0l0,0l0,0l0,0c0-0.766,0.383-4.598,1.916-10.729
		C505.335,210.025,506.867,206.192,506.484,203.892z"/>
	<path fill="#FFCCCC" d="M220.959,313.885c-1.916,7.282-1.533,11.498,2.683,11.498l264.83-68.217
		c3.449-1.535,3.449-3.835,2.682-6.133L220.959,313.885z"/>
</g>
</svg>
