<?xml version="1.0" encoding="utf-8"?>
<!-- Generator: Adobe Illustrator 16.0.0, SVG Export Plug-In . SVG Version: 6.00 Build 0)  -->
<!DOCTYPE svg PUBLIC "-//W3C//DTD SVG 1.1//EN" "http://www.w3.org/Graphics/SVG/1.1/DTD/svg11.dtd">
<svg version="1.1" id="Capa_2" xmlns="http://www.w3.org/2000/svg" xmlns:xlink="http://www.w3.org/1999/xlink" viewBox="0 0 512 492" xml:space="preserve">
<path fill="#CC0000" d="M455.408,186.955l-53.876-15.027c-0.732-0.366-1.465-0.366-2.199-0.366l10.628-38.117
	c0.734-2.199,1.1-4.398,1.834-6.597L92.205,37.79c-0.733,2.199-1.466,4.397-1.833,6.596L5.344,353.346
	c-1.1,4.03-1.832,7.696-2.932,11.728c-0.733,1.467-1.1,2.566-1.465,4.031c-9.53,35.186,53.875,83.93,142.202,108.484
	c80.996,22.356,154.297,17.227,173.355-10.995c1.1,0.367,2.563,0.734,3.664,1.1l53.876,15.026
	c39.215,10.996,80.631-12.46,91.26-52.042l41.78-151.731C518.078,238.999,494.99,197.95,455.408,186.955z M433.417,396.594
	c-10.993,39.582-45.813,39.946-85.027,28.953l0,0c-6.229-1.834-12.095-3.666-17.593-5.865l56.808-205.972
	c5.865,0.733,11.729,2.199,17.961,3.665l0,0c39.215,10.994,67.801,33.718,56.805,73.3L433.417,396.594z"/>
<path fill="#FF6666" d="M411.427,126.483c-9.528,35.184-89.06,43.98-177.387,19.425C145.714,121.352,82.31,72.974,91.839,37.79
	c9.529-35.185,89.059-43.98,177.385-19.425C357.552,42.921,421.324,91.299,411.427,126.483z"/>
<path fill="#660000" d="M402.999,119.519c-7.33,27.121-80.631,30.053-163.46,6.963c-82.83-23.09-144.035-63.405-136.705-90.16
	s80.629-30.052,163.46-6.963C349.122,52.449,410.328,92.765,402.999,119.519z"/>
<polygon fill="#660000" points="373.312,176.327 372.945,211.877 387.604,214.076 382.842,230.202 360.485,223.972 "/>
<path fill="#660000" d="M301.111,420.049c-5.498,15.027-10.629,30.054-4.398,39.947l19.792,6.598
	c-1.468,2.199-3.666,4.766-6.965,7.329l-25.288-5.862C284.619,451.568,290.848,435.441,301.111,420.049z"/>
<path fill="#990033" d="M182.731,301.669c-46.18-31.885-96.024-52.776-148.066-66.336c-0.367,31.52,19.424,59.375,49.477,85.029
	C126.657,326.958,156.343,316.329,182.731,301.669z"/>
<path fill="#660000" d="M171.736,307.534c-47.645-28.954-85.76-45.447-136.704-61.939c1.832,27.122,17.958,50.577,48.745,74.767
	C125.924,329.157,147.18,318.162,171.736,307.534z"/>
<path fill="#450F1D" d="M44.194,255.491c1.466,0.732,38.849,32.619,38.849,32.619l-13.561,19.058l-5.497-5.864l10.995-15.026
	L44.194,255.491z"/>
<path fill="#450F1D" d="M112.73,304.602l-4.764,17.958l-7.697-0.731l6.23-22.357c0,0,48.013,9.162,49.478,9.896L112.73,304.602z"/>
<path fill="#E9E8C6" d="M113.829,85.435c11.36,84.661-16.86,129.008-76.232,150.265c43.247,14.293,98.955,32.985,145.134,66.336
	c-21.624-79.531,6.963-130.108,46.178-157.229C181.998,129.048,139.85,109.623,113.829,85.435z"/>
<path fill="#E9E8C6" d="M166.239,385.598l-38.117,19.792l-2.565-28.221l-25.289,6.962l-1.1-21.257l-17.592,4.766l-3.665-16.126
	l-19.791,1.467l1.465-11.363l-13.193,1.1l-3.299-18.325l5.864,4.398C76.079,349.315,119.326,367.64,166.239,385.598z"/>
<path fill="#660000" d="M30.633,305.335c43.98,42.147,93.825,66.703,150.999,69.635v-13.195l25.655,10.629l-27.488,37.018
	l0.733-21.257c-52.043-2.566-101.154-28.221-148.433-74.034L30.633,305.335z"/>
<path fill="#660000" d="M79.744,145.907c-6.963,17.225-7.33,32.251-4.397,38.482c1.832,4.397,13.56-6.597,20.523-24.189
	c6.963-17.226,8.796-34.452,4.398-38.482C95.87,118.053,86.707,128.682,79.744,145.907z"/>
<path fill="#660000" d="M213.516,202.714c-6.963,17.226-7.33,32.252-4.398,38.483c1.833,4.397,13.561-6.597,20.524-24.189
	c6.963-17.226,8.796-34.452,4.398-38.482C229.643,174.494,220.48,185.49,213.516,202.714z"/>
<path fill="#FF9999" d="M122.259,72.24c52.41,46.913,156.862,79.531,240.426,71.101l17.591-4.764
	c-0.367-8.429-4.031-13.927-13.928-14.293c8.064-3.665-7.329-57.54-18.689-54.242c5.862-10.995-9.896-32.985-24.923-29.32
	c1.1-19.791-42.881-42.147-71.103-31.885c-10.628-10.996-26.754-10.996-33.352-4.032c-8.795-4.031-27.121-6.23-32.251,2.199
	c-7.697-5.864-42.514-0.366-42.514,15.393c-17.958-4.031-32.252,12.829-32.619,19.425C98.435,52.817,107.232,62.712,122.259,72.24z"
	/>
<path fill="#990000" d="M207.286,57.947c0-11.362,3.299-18.691,10.628-21.624c25.289,0.368,36.283,8.431,40.682,20.891
	c-1.1-11.36-8.797-20.157-32.252-23.088c1.467-14.294,10.262-19.425,23.09-19.425c2.199-3.665,5.498-6.23,10.262-7.33
	c-2.933,0-5.498,0.366-8.429,1.099c-1.1,0.366-1.833,0.732-2.565,1.832l0,0l-8.796-4.398l7.697,6.231
	c-7.697,0-13.927,1.466-18.325,5.497v-0.366l-16.126-8.063l12.094,13.194c-1.466,2.932-2.565,6.231-2.931,10.262
	c-5.498-0.366-10.262,1.833-13.927,5.864c-7.697-7.696-14.661-10.261-21.257-12.828c9.162,7.697,16.858,15.027,16.493,23.09l0,0
	c-0.368,2.199-0.368,4.032,0,6.231c-6.231,1.832-9.529,5.13-11.728,9.161c-8.431,2.566-26.022,6.598-34.818,0.733
	c-12.095-8.063-20.158-36.283-20.158-36.283s0.367,3.665,1.467,8.795l0,0c-4.764,9.163-12.095,10.996-20.89,8.063
	c8.429,3.299,15.759,3.665,22.356-1.832l0,0c1.466,5.864,3.299,12.094,6.23,17.592c-1.1,6.597-5.497,10.995-11.728,13.927
	c6.963-0.734,12.461-3.299,15.026-8.797c1.466,1.833,2.933,3.299,4.764,4.398c4.032,2.199,8.797,2.933,13.561,2.933
	c2.199,5.864-1.1,10.994-6.963,15.759c6.597-4.031,11.362-9.163,13.561-16.126c6.596-0.732,12.46-2.199,15.759-3.299
	c-1.1,4.766-1.1,10.262-0.733,15.76c-12.46,1.1-15.393,8.797-15.025,19.058c2.931-10.261,9.161-16.492,19.058-15.026
	C192.626,73.707,196.658,60.146,207.286,57.947z"/>
<path fill="#990000" d="M333.73,117.32c1.832,9.163,17.958,16.86,29.687,8.429c-10.629,4.398-26.022-0.366-26.388-11.36
	c6.23-5.864,9.529-12.828,10.629-20.524c4.763-1.1,12.46,4.764,13.192,16.492c2.934-15.759-5.131-19.425-12.461-23.09V88
	c0.368-5.132,0-10.996-1.099-17.592c2.566,32.984-19.426,49.477-37.017,56.44c-25.655,0.733-39.95,3.665-53.877,6.597
	c25.655-2.565,63.406,0.366,93.824,10.995c-13.56-6.963-20.889-11.728-35.916-15.026C322.368,125.017,328.965,121.352,333.73,117.32
	z"/>
<path fill="#990000" d="M221.58,58.68c4.764,3.665,14.66,8.795,24.922,10.628c-5.498,7.33-4.764,10.995-3.298,14.659
	c1.832-5.497,3.665-9.895,6.596-12.46c3.299-3.665,14.295-4.032,15.026,0.366l-4.03,18.325l7.696-19.791
	c9.896-18.325,27.121-3.299,24.556,4.765c4.398-20.525,15.393-31.153,21.258-27.121c3.299,1.832,3.299,10.261,3.299,17.592
	l6.598-24.189c0.732-0.366,1.1-0.733,1.1-0.733l-1.467,0.367c-14.661-18.692-32.986-26.754-56.076-22.724
	c21.257-1.465,37.751,7.33,50.21,23.822c-2.932-0.366-20.89-0.366-28.22,16.859c-0.366,0-0.733-0.366-1.466-0.366
	c1.466-14.66-5.131-30.419-34.085-35.917c28.588,9.163,32.252,24.555,26.389,34.084c-5.131-0.366-9.896,1.1-13.562,6.23
	c-4.03-1.465-9.895-0.732-14.659,2.933c-1.467,0.733-4.765-2.565-9.896-0.366c-2.931,1.099-12.094-6.964-19.057-9.53
	c-7.697-2.931-15.76,2.566-15.76,2.566S217.915,55.382,221.58,58.68z"/>
<path fill="#990000" d="M267.025,112.556c3.299,4.398,8.431,8.429,18.326,6.23l2.932,7.697l-0.367-8.429
	c2.933-0.733,5.865-2.199,9.53-4.032c5.497,2.933,14.293-1.832,21.989-10.262l0,0l12.461,4.765l-9.161-8.429
	c9.528-11.728,16.493-28.22,10.261-39.215c-1.465,16.125-5.498,31.152-16.859,41.78c-4.397,4.032-12.826,5.498-14.659,5.864
	l8.063-36.283l-13.561,37.383c-13.927,4.766-23.822,5.131-25.289-0.366l7.331-23.456l-10.996,22.723
	c-17.226,5.865-21.256,2.199-19.423-3.665l5.864-15.393c0,0-6.964,10.628-9.896,15.026c-2.565,4.398-8.429,4.031-10.262,0.366
	c-6.596-2.931-25.655-15.759-21.99-38.482c-4.764,11.728-0.366,23.456,12.096,35.917c-12.828-4.398-26.389-11.361-26.389-11.361
	s22.724,13.927,32.252,16.859c9.529,2.932,12.828,23.822,12.828,23.822s0.732-14.293,0.366-19.423
	c1.833,1.832,7.33,4.031,13.561,4.031l0,0l-0.366,12.094l3.298-12.094C261.162,115.854,264.461,114.755,267.025,112.556z"/>
<path fill="#990000" d="M171.369,48.052c2.199,3.298-2.199,8.062-7.697,10.628c6.598-1.467,11.362-4.032,9.896-10.262l13.561,0.732
	c-11.728-0.366-22.723-5.13-31.153-12.094c9.163,1.1,16.493,0,21.99-2.931c-10.996,2.565-19.425,2.565-25.289,0
	c-2.933-2.933-5.498-6.231-7.33-9.896C149.745,33.026,154.877,44.386,171.369,48.052z"/>
<path fill="#990000" d="M151.945,17.265c12.827-1.832,24.922,0.366,36.65,5.498c2.199,2.199,4.765,4.031,8.063,5.864
	c-10.262-7.697-11.362-22.724-5.864-25.289c-1.467,0.733-3.299,1.465-5.132,4.032c-1.832,4.764-1.466,8.795,0.367,11.728
	C171.369,13.235,160.741,13.967,151.945,17.265z"/>
<path fill="#990000" d="M171.736,6.637c5.131-0.366,9.53,0.366,12.827,3.299l0.733-2.933C181.632,5.538,176.867,5.538,171.736,6.637
	z"/>
<path fill="#990000" d="M114.196,57.214c-2.199-5.13-3.665-9.895-3.665-15.026l-1.833,1.833
	c-0.366,8.796,6.598,18.691,15.393,28.587c-2.932-4.032-5.497-7.697-7.33-11.728c6.23,2.565,15.393,4.397,19.791-2.566
	C130.322,60.146,119.693,60.512,114.196,57.214z"/>
<path fill="#990000" d="M140.217,86.534c8.796,2.932,11.728-0.367,14.294-4.398c-4.398,3.298-10.63,3.665-18.325,1.465
	L140.217,86.534z"/>
</svg>
