<?xml version="1.0" encoding="utf-8"?>
<!-- Generator: Adobe Illustrator 16.0.0, SVG Export Plug-In . SVG Version: 6.00 Build 0)  -->
<!DOCTYPE svg PUBLIC "-//W3C//DTD SVG 1.1//EN" "http://www.w3.org/Graphics/SVG/1.1/DTD/svg11.dtd">
<svg version="1.1" id="Capa_2" xmlns="http://www.w3.org/2000/svg" xmlns:xlink="http://www.w3.org/1999/xlink" viewBox="0 0 512 385" xml:space="preserve">
<path fill="#FFFF99" d="M272.772,148.155c-15.89-16.184-32.367-2.06-32.367-2.06s-20.01,14.124-23.246,31.484
	c-3.531,17.361,5.296,26.189,5.296,26.189c7.356,4.119,14.713,4.413,22.069-1.766c0,0-2.942-12.653,2.354-18.833
	c5.297-6.179,20.893-9.121,20.893-9.121S288.957,164.633,272.772,148.155z"/>
<path fill="#CC9900" d="M255.706,140.209c-11.182,0.883-20.598,8.239-28.837,18.833l-6.768,10.593
	C238.639,153.451,254.529,158.453,255.706,140.209z"/>
<path fill="#CC9900" d="M222.75,170.812c9.71,4.12,18.832,6.769,26.188,7.063C241.288,175.226,232.166,172.871,222.75,170.812z"/>
<path fill="#CC9900" d="M224.515,177.874c7.355,2.354,14.418,3.236,19.715,2.06C238.344,178.757,231.577,178.168,224.515,177.874z"
	/>
<path fill="#CC9900" d="M223.927,183.759c5.885,1.766,11.182,2.648,15.301,1.177C234.519,184.053,229.223,183.759,223.927,183.759z"
	/>
<path fill="#CC9900" d="M235.991,189.939c-3.237-0.589-7.063-0.883-10.888-0.883C229.223,190.527,233.049,191.115,235.991,189.939z"
	/>
<path fill="#FFCC66" d="M176.258,159.042c20.304-12.653,32.073,5.591,32.073,5.591s15.007,18.832,12.947,37.075
	c-2.06,18.244-12.947,25.012-12.947,25.012c-8.239,2.354-15.595,1.177-20.892-6.768c0,0,6.474-12.064,3.531-19.421
	s-17.361-14.124-17.361-14.124S155.954,171.695,176.258,159.042z"/>
<path fill="#CC9900" d="M195.09,155.217c10.593,3.53,17.361,13.241,22.363,25.6l3.531,12.064
	C207.448,172.283,190.97,173.46,195.09,155.217z"/>
<path fill="#CC9900" d="M217.747,193.175c-10.593,1.766-20.303,2.648-27.365,0.883C198.621,193.469,208.037,193.175,217.747,193.175
	z"/>
<path fill="#CC9900" d="M213.922,199.943c-7.944,0.589-14.713,0-19.715-2.647C200.386,197.589,206.86,198.472,213.922,199.943z"/>
<path fill="#CC9900" d="M212.745,206.122c-6.18,0.589-11.476,0-15.007-2.354C202.446,204.063,207.448,204.946,212.745,206.122z"/>
<path fill="#CC9900" d="M199.209,209.36c3.531,0.294,7.063,0.882,10.888,1.765C205.682,211.419,201.857,211.124,199.209,209.36z"/>
<path fill="#FFFF99" d="M325.444,167.869c-7.65-19.715-29.426-10.888-29.426-10.888s-25.012,7.945-35.898,23.246
	c-10.888,15.302-6.474,25.895-6.474,25.895c5.002,5.885,11.77,8.239,21.48,4.414c0,0,2.942-12.653,10.593-17.066
	c7.65-4.414,23.541-2.943,23.541-2.943S333.094,187.584,325.444,167.869z"/>
<path fill="#CC9900" d="M312.791,155.805c-10.887-2.06-22.952,2.06-35.311,9.711l-11.182,7.944
	C291.016,163.455,303.67,172.283,312.791,155.805z"/>
<path fill="#CC9900" d="M268.653,175.226c7.356,6.474,14.713,11.771,21.48,13.83C283.66,184.348,276.303,179.934,268.653,175.226z"
	/>
<path fill="#CC9900" d="M267.181,182.288c6.18,4.119,12.064,7.062,17.655,7.355C279.54,186.996,273.655,184.642,267.181,182.288z"/>
<path fill="#CC9900" d="M263.65,187.879c4.708,3.236,9.122,5.59,13.83,5.296C273.655,190.822,268.653,189.35,263.65,187.879z"/>
<path fill="#CC9900" d="M272.478,196.706c-2.942-1.472-6.18-2.648-10.005-3.825C266.005,195.53,269.241,197,272.478,196.706z"/>
<path fill="#CC9900" d="M227.163,289.691c17.067,15.595,32.662,0.588,32.662,0.588s18.538-15.301,20.598-32.662
	c2.061-17.36-7.355-25.895-7.355-25.895c-7.651-3.825-15.008-3.825-22.069,2.943c0,0,3.825,12.652-0.589,19.126
	c-4.708,6.474-20.009,10.299-20.009,10.299S209.802,274.389,227.163,289.691z"/>
<path fill="#CC9900" d="M244.818,296.752c11.182-1.472,20.01-9.416,27.366-20.304l5.885-10.887
	C260.708,282.628,244.524,278.509,244.818,296.752z"/>
<path fill="#CC9900" d="M275.127,264.679c-10.005-3.531-19.421-5.886-26.777-5.886C256.589,261.148,265.711,262.913,275.127,264.679
	z"/>
<path fill="#CC9900" d="M272.772,257.616c-7.65-1.766-14.713-2.648-20.009-1.177C258.942,257.616,265.711,257.91,272.772,257.616z"
	/>
<path fill="#CC9900" d="M273.067,251.732c-5.886-1.472-11.477-2.06-15.302-0.294C262.473,252.026,267.77,252.026,273.067,251.732z"
	/>
<path fill="#CC9900" d="M260.414,246.141c3.236,0.589,7.063,0.589,10.888,0.294C267.181,245.258,263.356,244.964,260.414,246.141z"
	/>
<path fill="#FFFF99" d="M299.256,294.104c-19.127,13.536-32.368-3.825-32.368-3.825s-16.479-17.949-15.89-36.193
	c0.589-18.243,10.888-25.6,10.888-25.6c7.944-2.942,15.301-1.766,21.48,5.885c0,0-5.591,12.359-2.061,19.715
	c3.531,7.356,18.538,13.242,18.538,13.242S318.382,280.569,299.256,294.104z"/>
<path fill="#CC9900" d="M280.718,299.107c-10.888-2.943-18.538-12.064-24.423-24.424l-4.414-12.063
	C266.887,282.628,283.366,280.569,280.718,299.107z"/>
<path fill="#CC9900" d="M255.117,262.031c10.594-2.354,20.01-3.531,27.366-2.354C273.949,260.854,264.828,261.737,255.117,262.031z"
	/>
<path fill="#CC9900" d="M258.354,255.263c7.944-0.883,14.713-0.883,20.009,1.471C271.889,257.029,265.416,256.146,258.354,255.263z"
	/>
<path fill="#CC9900" d="M258.942,249.083c6.18-0.883,11.477-0.589,15.302,1.766C269.241,250.849,264.239,249.966,258.942,249.083z"
	/>
<path fill="#CC9900" d="M272.184,245.258c-3.531,0-7.063-0.589-10.888-1.177C265.711,243.492,269.536,243.492,272.184,245.258z"/>
<path fill="#FFCC66" d="M213.334,315.584c25.894,2.06,24.423-17.066,24.423-17.066s0.588-21.187-12.947-35.017
	c-13.536-13.829-27.66-15.007-27.66-15.007c-8.827,1.178-14.124,5.297-13.83,13.83c0,0,13.536,7.063,15.89,14.419
	c2.354,7.355-5.885,18.243-5.885,18.243S187.439,313.231,213.334,315.584z"/>
<path fill="#CC9900" d="M227.163,271.447c-10.593,2.942-19.42,5.885-24.717,10.005C210.39,278.803,218.63,275.272,227.163,271.447z"
	/>
<path fill="#CC9900" d="M219.512,267.327c-7.062,2.647-12.947,5.885-15.596,10.004C209.214,274.683,214.217,271.153,219.512,267.327
	z"/>
<path fill="#CC9900" d="M214.51,262.913c-5.885,2.06-10.005,4.414-11.476,7.944C206.86,268.798,210.685,265.856,214.51,262.913z"/>
<path fill="#CC9900" d="M200.386,265.562c2.942-1.472,5.591-3.531,8.239-5.591C204.506,261.442,201.563,263.207,200.386,265.562z"/>
<path fill="#FFFF99" d="M284.837,228.486c9.416,18.832-15.89,22.657-15.89,22.657s-27.071,5.886-48.552-0.883
	c-21.48-6.768-26.482-17.066-26.482-17.066c-0.589-7.063,3.236-12.064,14.418-13.83c0,0,12.653,8.533,22.657,8.239
	c10.005-0.294,22.069-9.122,22.069-9.122S275.421,209.654,284.837,228.486z"/>
<path fill="#CC9900" d="M284.248,244.081c-7.355,7.062-20.892,9.416-37.37,9.416l-15.89-0.883
	C259.825,248.494,263.062,235.548,284.248,244.081z"/>
<path fill="#CC9900" d="M231.577,249.966c0.883-8.533,2.942-16.184,6.768-20.892C236.579,235.548,234.225,242.61,231.577,249.966z"
	/>
<path fill="#CC9900" d="M224.515,245.258c1.765-6.18,4.413-11.182,8.827-14.124C231.283,235.548,228.046,240.256,224.515,245.258z"
	/>
<path fill="#CC9900" d="M217.159,242.61c1.177-4.708,3.236-8.827,7.356-10.593C222.75,235.548,220.395,239.078,217.159,242.61z"/>
<path fill="#CC9900" d="M217.159,231.428c-1.178,2.648-2.942,5.002-5.297,7.65C213.039,235.548,214.51,232.9,217.159,231.428z"/>
<path fill="#FFFF99" d="M152.423,166.399c-25.011,6.768-14.418,27.953-14.418,27.953s9.416,24.129,28.543,35.017
	c19.126,10.888,32.661,7.063,32.661,7.063c7.651-4.709,10.888-11.182,6.18-20.599c0,0-15.89-3.236-21.48-10.593
	s-2.942-22.951-2.942-22.951S177.434,159.63,152.423,166.399z"/>
<path fill="#CC9900" d="M136.828,178.168c-2.942,10.593,2.06,22.069,11.476,34.428l10.005,10.888
	C145.949,199.355,157.719,187.584,136.828,178.168z"/>
<path fill="#CC9900" d="M160.368,221.129c8.533-7.062,15.007-13.83,18.243-20.304C172.432,207.005,166.548,213.773,160.368,221.129z
	"/>
<path fill="#CC9900" d="M169.49,222.895c5.296-5.591,9.121-11.182,9.71-16.772C175.669,211.124,172.432,216.715,169.49,222.895z"/>
<path fill="#CC9900" d="M176.258,226.426c4.414-4.414,7.356-8.828,7.062-13.241C180.377,217.01,178.317,221.423,176.258,226.426z"/>
<path fill="#CC9900" d="M188.028,218.187c-2.061,2.648-3.531,5.885-5.003,9.416C185.968,224.366,188.028,221.129,188.028,218.187z"
	/>
<path fill="#FFFF99" d="M129.471,257.616c-7.356-23.834,18.243-26.188,18.243-26.188s27.66-4.708,48.258,5.002
	c20.598,9.711,24.423,22.952,24.423,22.952c-0.294,8.533-4.414,14.418-15.89,15.596c0,0-11.77-11.182-21.48-12.064
	c-10.005-0.589-22.951,9.122-22.951,9.122S136.828,281.451,129.471,257.616z"/>
<path fill="#996600" d="M164.193,270.564c2.06,24.717-23.54,21.774-23.54,21.774s-28.248-0.883-46.198-14.712
	c-17.949-13.83-19.126-27.366-19.126-27.366c2.06-8.239,7.356-13.241,18.832-12.064c0,0,9.122,13.242,18.538,15.89
	c9.416,2.648,24.423-4.413,24.423-4.413S162.134,245.847,164.193,270.564z"/>
<path fill="#CC9900" d="M166.253,221.423c2.06,24.718-23.54,21.775-23.54,21.775s-28.248-0.883-46.197-14.713
	c-17.95-13.83-19.127-27.365-19.127-27.365c2.06-8.239,7.356-13.241,18.832-12.064c0,0,9.122,13.241,18.538,15.89
	s24.423-4.414,24.423-4.414S164.193,196.706,166.253,221.423z"/>
<path fill="#996600" d="M187.733,151.98c2.06,24.718-23.54,21.774-23.54,21.774s-28.248-0.883-46.197-14.712
	c-17.95-13.83-19.127-27.366-19.127-27.366c2.06-8.238,7.356-13.241,18.832-12.064c0,0,9.122,13.242,18.538,15.89
	c9.416,2.648,24.423-4.413,24.423-4.413S185.674,127.263,187.733,151.98z"/>
<path fill="#CC9900" d="M131.825,239.078c8.239-7.944,21.775-9.71,38.253-8.239l15.596,2.354
	C156.543,235.548,151.835,251.143,131.825,239.078z"/>
<path fill="#CC9900" d="M185.085,236.136c-1.766,10.299-4.708,19.127-9.121,25.012C178.317,253.202,181.26,244.669,185.085,236.136z
	"/>
<path fill="#CC9900" d="M191.558,242.61c-2.354,7.356-5.591,13.241-10.299,16.479C183.614,253.497,187.439,248.2,191.558,242.61z"/>
<path fill="#CC9900" d="M198.327,246.141c-1.766,5.885-4.12,10.299-8.534,12.358C191.853,254.38,194.796,250.26,198.327,246.141z"/>
<path fill="#CC9900" d="M197.149,259.971c1.472-2.942,3.531-5.886,6.18-8.828C201.857,255.263,200.092,258.499,197.149,259.971z"/>
<path fill="#FFFF99" d="M195.09,128.44c-25.895-2.06-23.834,21.48-23.834,21.48s0,25.895,14.124,42.372
	c14.124,16.479,28.248,17.655,28.248,17.655c8.827-1.766,14.124-6.768,13.241-17.066c0,0-13.83-8.239-16.184-17.066
	c-2.354-8.828,5.296-22.363,5.296-22.363S220.984,130.205,195.09,128.44z"/>
<path fill="#CC9900" d="M176.258,134.031c-6.768,8.827-6.18,21.48-1.766,35.898l5.297,13.536
	C177.14,156.982,192.441,149.92,176.258,134.031z"/>
<path fill="#CC9900" d="M182.731,182.582c10.299-3.825,19.126-7.65,24.423-12.947C199.209,173.166,190.97,177.579,182.731,182.582z"
	/>
<path fill="#CC9900" d="M190.382,186.996c7.063-3.531,12.653-7.356,15.301-12.359C200.68,177.874,195.384,182.288,190.382,186.996z"
	/>
<path fill="#CC9900" d="M195.678,192.587c5.591-2.648,10.004-5.886,11.476-10.005C203.035,185.231,199.209,188.467,195.678,192.587z
	"/>
<path fill="#CC9900" d="M209.508,188.761c-2.942,1.766-5.591,4.414-8.238,7.063C205.388,194.058,208.626,191.704,209.508,188.761z"
	/>
<path fill="#996600" d="M267.77,259.382c-11.771,22.069-32.073,6.768-32.073,6.768s-23.541-15.007-31.191-35.898
	c-7.356-20.892-0.883-32.956-0.883-32.956c6.18-5.886,13.536-7.356,22.657-0.589c0,0,0.295,15.89,7.063,22.952
	c6.768,7.062,23.246,8.827,23.246,8.827S279.835,237.313,267.77,259.382z"/>
<path fill="#CC9900" d="M212.156,237.902c8.828-6.18,17.067-10.888,24.423-12.064C229.223,230.251,220.984,234.076,212.156,237.902z
	"/>
<path fill="#FFCC66" d="M327.798,264.679c24.718-8.239,12.653-28.837,12.653-28.837s-10.888-23.54-30.896-33.251
	c-19.716-9.71-33.251-5.002-33.251-5.002c-7.356,5.002-10.005,11.771-4.708,20.892c0,0,16.184,2.06,22.069,9.122
	c5.885,7.063,4.708,22.657,4.708,22.657S303.081,272.918,327.798,264.679z"/>
<path fill="#CC9900" d="M342.51,251.732c2.354-10.593-3.531-22.069-13.83-33.545l-10.593-10.299
	C331.918,231.428,321.03,243.786,342.51,251.732z"/>
<path fill="#CC9900" d="M316.028,210.241c-7.945,7.356-14.124,14.713-16.772,21.187C305.14,225.249,310.731,217.893,316.028,210.241
	z"/>
<path fill="#CC9900" d="M307.2,209.065c-5.002,5.886-8.533,11.771-8.533,17.361C301.609,221.423,304.552,215.538,307.2,209.065z"/>
<path fill="#CC9900" d="M300.138,206.122c-4.12,4.708-6.769,9.122-6.18,13.536C296.312,215.832,298.373,211.124,300.138,206.122z"/>
<path fill="#CC9900" d="M288.957,215.244c1.765-2.942,3.236-6.18,4.413-9.711C290.427,208.771,288.368,212.007,288.957,215.244z"/>
<path fill="#FFFF99" d="M318.382,222.601c8.828,23.246-16.478,27.071-16.478,27.071s-27.366,6.474-48.553-2.061
	c-21.186-8.533-25.894-21.186-25.894-21.186c-0.295-8.533,3.53-14.713,14.712-16.479c0,0,12.359,10.593,22.363,10.593
	c10.005,0,22.363-10.593,22.363-10.593S309.554,199.355,318.382,222.601z"/>
<path fill="#CC9900" d="M317.205,241.433c-7.65,8.239-21.187,10.887-37.665,10.593l-15.89-1.471
	C292.782,246.435,296.312,230.545,317.205,241.433z"/>
<path fill="#CC9900" d="M264.239,247.612c1.177-10.593,3.237-19.42,7.356-25.6C269.83,230.251,267.476,238.784,264.239,247.612z"/>
<path fill="#CC9900" d="M257.471,241.727c1.766-7.356,4.708-13.535,9.122-17.066C264.533,230.251,261.297,235.842,257.471,241.727z"
	/>
<path fill="#CC9900" d="M250.409,238.49c1.178-5.886,3.531-10.594,7.65-12.947C256.295,229.662,253.646,234.076,250.409,238.49z"/>
<path fill="#CC9900" d="M250.704,224.66c-1.178,2.942-3.237,6.179-5.297,9.122C246.29,229.662,247.76,226.426,250.704,224.66z"/>
<path fill="#FFCC66" d="M332.212,287.63c12.064-22.068-11.182-29.425-11.182-29.425s-24.718-10.299-45.903-4.414
	c-21.48,5.885-27.954,17.949-27.954,17.949c-1.766,8.533,0.883,15.007,11.182,18.538c0,0,13.535-8.827,22.657-7.65
	c9.416,1.177,19.421,13.535,19.421,13.535S319.853,309.993,332.212,287.63z"/>
<path fill="#CC9900" d="M333.977,268.798c-5.885-9.416-18.244-13.83-33.839-15.89l-15.008-0.589
	C311.614,260.559,312.497,276.743,333.977,268.798z"/>
<path fill="#CC9900" d="M285.131,255.557c-0.588,10.593,0,20.009,2.648,26.482C287.779,273.8,286.602,264.679,285.131,255.557z"/>
<path fill="#CC9900" d="M277.775,260.559c0.588,7.651,2.06,14.124,5.885,18.244C282.483,273.212,280.423,267.032,277.775,260.559z"
	/>
<path fill="#CC9900" d="M270.713,262.913c0.294,6.179,1.472,11.182,5.002,13.83C274.538,272.329,272.772,267.621,270.713,262.913z"
	/>
<path fill="#CC9900" d="M268.653,276.743c-0.589-3.237-2.06-6.474-3.531-10.005C265.416,271.153,266.299,274.683,268.653,276.743z"
	/>
<path fill="#FFFF99" d="M222.75,172.283c24.717-6.474,26.776,17.949,26.776,17.949s4.414,26.777-6.179,46.492
	c-10.594,19.715-24.129,23.246-24.129,23.246c-8.828-0.295-14.713-4.414-15.89-15.596c0,0,12.064-10.888,12.947-20.598
	c0.883-9.416-9.122-22.363-9.122-22.363S197.738,179.051,222.75,172.283z"/>
<path fill="#CC9900" d="M243.935,226.426c-10.593-2.06-20.009-4.708-25.894-9.122C226.575,219.364,235.108,222.601,243.935,226.426z
	"/>
<path fill="#CC9900" d="M237.168,232.311c-7.65-2.354-13.535-5.591-16.772-10.299C225.986,224.66,231.577,228.192,237.168,232.311z"
	/>
<path fill="#CC9900" d="M233.343,239.078c-5.885-1.766-10.593-4.119-12.653-8.239C224.809,232.605,228.928,235.548,233.343,239.078z
	"/>
<path fill="#CC9900" d="M219.219,237.608c2.942,1.471,6.179,3.531,9.122,5.885C223.927,242.316,220.395,240.55,219.219,237.608z"/>
<polygon fill="#CC9900" points="289.839,199.943 298.373,229.957 316.028,202.886 "/>
<path fill="#CC9900" d="M241.876,175.226c7.945,7.944,9.416,21.187,7.945,37.076l-2.648,14.712
	C245.113,199.06,228.928,194.352,241.876,175.226z"/>
<polygon fill="#CC9900" points="223.927,173.166 229.811,198.766 248.643,186.996 241.876,175.226 "/>
<path fill="#96853E" d="M237.757,193.764l10.887-6.768l0,0l-6.768-11.771C236.874,182.876,236.285,188.173,237.757,193.764z"/>
<path fill="#FFFFFF" d="M212.451,153.451c-1.766,12.652-1.766,26.188,0,40.9c12.946-0.588,23.834-4.119,31.779-10.887
	c2.06,11.182,6.474,21.186,14.712,28.837c7.945-2.942,14.713-8.239,21.48-14.419c0.883,10.594,3.531,19.715,9.122,26.188
	c9.416-5.296,16.772-12.947,22.363-22.068c-2.648,10.004,2.648,20.892,8.533,31.779l20.304-38.842l-91.513-30.603L212.451,153.451z"
	/>
<path fill="#CC0000" d="M462.271,178.462L512,144.623l-59.438-27.071c-4.12-32.367-40.901-57.379-82.391-69.737
	c1.471-11.771,1.766-18.833,3.825-28.249c-12.947,3.825-32.956,13.242-47.375,22.658c-43.255,8.238-86.805,48.846-107.696,79.153
	c0,0-22.952-3.825-16.185,18.538c21.48,45.903,55.025,61.793,127.118,65.03c-18.833,36.193-21.48,68.267-15.596,95.632
	c0,0-6.768-2.06-17.067-4.708c-6.179,3.825-11.77,4.12-16.184,3.237l0,0c-0.294,0-0.294,0-0.589-0.295
	c-6.179-1.471-10.299-5.296-12.063-7.356c-1.178-0.883-2.061-2.06-2.943-3.236c-0.883,0-1.471-0.294-2.354-0.294
	c-1.472,1.177-2.648,2.354-4.12,3.236c-2.06,1.766-6.768,5.002-12.946,5.591c-0.295,0-0.295,0-0.589,0l0,0
	c-2.354,0.294-4.708,0-7.356-0.883c0,1.472,0,2.354,0,2.354s1.766,19.126-24.423,17.066c-25.895-2.06-20.01-20.598-20.01-20.598
	s4.12-5.297,5.591-11.182c-5.296,0.883-10.004,2.354-13.829,4.119c-32.368,17.361-5.886,67.973,15.301,68.855
	s27.66-6.474,37.959-3.825c10.299,2.647,31.484,34.133,85.333,31.19c58.263-3.236,102.4-42.961,102.4-42.961
	c-7.356-2.648-12.064-9.416-15.007-19.715c44.138-17.36,67.678-49.729,44.727-116.524L462.271,178.462z"/>
<path fill="#C47A8C" d="M300.432,296.458c0,0-0.589-0.883-1.766-1.766c-7.063,4.708-12.947,5.591-17.949,4.414l0,0
	c-0.295,0-0.295,0-0.589-0.295c-6.18-1.471-10.299-5.296-12.064-7.356c-1.471-1.177-2.648-2.647-3.825-4.413
	c-0.883,0.588-1.766,0.883-2.354,1.471c-1.178,1.178-1.766,1.766-1.766,1.766s-9.416,9.416-22.069,5.591c0,1.472,0,2.354,0,2.354
	s1.766,19.126-24.423,17.066c-15.007-1.177-19.421-7.945-20.304-13.536c-1.471,2.061-2.354,4.414-2.942,6.769
	c-5.002,20.598,16.772,17.066,16.772,17.066l106.814-25.6C306.317,300.577,300.432,296.458,300.432,296.458z"/>
<path fill="#00415B" d="M0.883,184.642c0-12.358,24.718-29.131,24.718-29.131v49.435C25.6,204.946,0.883,197,0.883,184.642z"/>
<path fill="#FFFFFF" d="M315.145,304.698c-8.239-9.417-16.479-18.538-22.952-23.246c-5.002,9.416-8.827,18.243-10.299,25.6
	c-8.533-10.005-17.066-18.832-25.306-25.6c-9.416,9.71-14.419,20.009-17.361,30.602c-7.356-4.413-15.007-8.827-22.951-11.476
	c-2.06,7.65-2.06,15.596-1.472,23.835C246.584,314.114,280.423,307.934,315.145,304.698z"/>
<path fill="#F5F1E6" d="M269.536,91.364c45.903,18.538,88.57-9.122,100.635-43.549c24.129,0,82.391,37.958,82.391,69.737
	c-80.625-32.662-111.521-2.06-128.883,44.433L269.536,91.364z"/>
<path fill="#990033" d="M232.46,54.582c52.083,25.012,82.979,70.62,94.161,110.051c-2.648,0.294-5.591,0.294-9.416,0.588
	L232.46,54.582z"/>
<path fill="#660000" d="M232.46,54.582c35.017,37.664,63.559,74.446,84.745,110.345c-28.248,2.648-57.968-1.472-90.336-18.538
	C217.453,113.727,223.927,84.007,232.46,54.582z"/>
<polygon fill="#450F1D" points="228.046,75.474 240.993,97.837 223.044,126.968 222.161,117.847 237.168,97.837 "/>
<polygon fill="#450F1D" points="294.253,153.745 257.765,121.377 244.818,153.745 253.351,157.865 259.531,129.616 "/>
<path fill="#660000" d="M203.918,329.708c-2.648,5.003,2.06,7.063,8.238,6.474c29.132-17.949,66.502-30.014,105.932-30.014
	c10.299,15.596,24.717,23.54,39.725,30.014c-61.794-34.722-55.614-132.413,29.719-167.43c-22.951,7.063-42.372,18.832-57.968,35.604
	c-17.655,37.076-22.951,69.149-15.595,95.632C274.538,307.64,239.227,312.053,203.918,329.708z"/>
<path fill="#660000" d="M392.239,141.975c-19.126,6.18-36.781,5.003-39.43-2.647c-2.648-7.356,10.888-18.538,30.014-24.424
	c19.127-5.885,36.782-5.002,39.43,2.648C424.901,125.202,411.366,135.796,392.239,141.975z"/>
<path fill="#660000" d="M325.15,79.594c-5.591,9.121-12.653,14.124-15.891,11.77c-3.236-2.648-1.471-11.77,4.12-20.892
	s12.652-14.124,15.89-11.771C332.506,61.056,330.74,70.472,325.15,79.594z"/>
<path fill="#0099CC" d="M100.635,0.44c15.301-4.414,15.596,25.895,15.596,25.895c49.435,16.772,63.264,47.374,75.917,78.565
	c0,0,15.89-5.297,19.126,0c3.237,5.296-8.238,16.478-8.238,16.478c-74.446,36.782-70.621,137.416-55.614,167.725
	c0,0,19.421,10.593,5.297,18.243c-14.124,7.651-35.899-12.652-35.899-12.652c-42.078-5.885-82.685-46.198-97.691-96.81
	C7.062,120.2,25.894,68.412,77.094,26.334C77.094,26.628,85.334,4.854,100.635,0.44z"/>
<path fill="#FFFF99" d="M220.395,264.679c-24.717-6.769-13.535-24.423-13.535-24.423s10.004-20.304,29.425-28.837
	s32.956-4.708,32.956-4.708c7.356,4.119,10.299,9.71,5.591,17.655c0,0-15.89,2.06-21.774,8.238
	c-5.591,6.18-3.825,19.421-3.825,19.421S245.113,271.447,220.395,264.679z"/>
<path fill="#CC9900" d="M205.094,254.085c-2.648-9.121,2.648-18.832,12.358-28.836l10.299-8.828
	C214.804,236.725,225.986,247.024,205.094,254.085z"/>
<path fill="#CC9900" d="M229.811,218.481c8.239,6.18,14.713,12.358,17.361,17.949C241.582,230.84,235.697,224.954,229.811,218.481z"
	/>
<path fill="#CC9900" d="M238.933,217.304c5.297,5.002,8.827,10.005,9.122,14.713C244.818,227.603,241.582,222.601,238.933,217.304z"
	/>
<path fill="#CC9900" d="M245.701,214.656c4.12,3.825,7.063,7.65,6.474,11.476C249.821,222.601,247.467,218.776,245.701,214.656z"/>
<path fill="#CC9900" d="M257.177,222.012c-1.766-2.354-3.531-5.297-4.709-8.239C255.412,216.715,257.471,219.364,257.177,222.012z"
	/>
<path fill="#DCE6F2" d="M183.614,85.479c-63.265,40.019-96.81,105.048-92.396,201.563c-25.012-11.771-53.26-36.782-61.793-63.265
	c0-54.143,14.418-115.053,98.574-192.735C149.48,40.458,171.256,54.582,183.614,85.479z"/>
<path fill="#EBD2AF" d="M120.938,241.433c-7.063,37.37-35.311,21.48-35.311,21.48s-32.073-14.124-47.669-42.961
	s-11.771-49.141-11.771-49.141c5.297-11.182,13.536-15.89,26.188-9.121c0,0,5.297,23.834,15.302,32.073
	c10.004,8.239,30.014,4.708,30.014,4.708S128,204.063,120.938,241.433z"/>
<path fill="#D1B38C" d="M106.814,264.679c-13.536,4.413-28.837-3.531-45.609-17.361l-15.007-15.007
	C78.565,250.555,93.278,233.488,106.814,264.679z"/>
<path fill="#D1B38C" d="M49.14,228.78c8.239-12.358,16.772-22.363,24.717-26.776C66.796,211.124,58.262,219.952,49.14,228.78z"/>
<path fill="#D1B38C" d="M46.198,215.538c7.062-7.944,14.124-13.83,20.892-14.418C61.205,206.416,54.142,211.124,46.198,215.538z"/>
<path fill="#D1B38C" d="M41.195,205.24c5.297-6.474,10.888-10.888,16.479-10.299C52.966,199.06,47.375,202.297,41.195,205.24z"/>
<path fill="#D1B38C" d="M50.906,187.879c-3.237,2.942-7.356,5.296-11.771,7.355C42.961,190.527,47.081,187.584,50.906,187.879z"/>
<path fill="#CC0000" d="M135.945,100.192c-1.472,1.766-3.237,2.942-5.003,4.119c-2.06-2.354-3.825-4.414-5.885-6.768
	c1.472-1.472,2.354-2.354,3.825-3.825c2.942-2.648-0.883-6.474-2.648-8.533c-1.471-1.766-5.591-6.18-8.238-2.943
	c-1.472,1.766-2.354,2.648-3.826,4.414c-2.354-1.766-4.708-3.825-7.062-5.885c1.177-2.06,2.942-4.12,4.708-5.885
	c8.239-8.534,16.184-6.769,23.246,1.471C141.83,84.302,143.302,92.246,135.945,100.192z"/>
<path fill="#CC0000" d="M129.471,106.959c-1.177,1.471-1.766,2.354-2.942,4.119c-1.178,1.472-2.354,3.237-3.825,4.708
	c-0.295,0.295-0.589,0.295-0.883,0c-3.237-2.354-6.18-5.002-9.416-7.356c-0.883,1.178-1.472,2.061-2.354,3.237
	c3.237,2.648,6.474,5.297,9.71,7.944c-0.883,1.472-1.765,2.648-2.942,4.414c-1.177,1.766-2.354,3.237-3.53,5.003
	c-0.295,0.294-0.589,0.294-0.883,0.294c-4.708-3.237-9.122-6.18-13.536-9.711c-4.708-3.53-8.827-7.65-13.241-11.476
	c1.177-1.766,2.06-3.236,3.236-5.002c1.178-1.766,2.648-3.531,4.12-5.297c0.294-0.294,0.588-0.294,0.883,0
	c2.942,2.648,5.591,5.297,8.533,7.945c0.883-1.472,1.471-2.061,2.648-3.237c-2.942-2.648-5.886-5.591-8.533-8.533
	c1.177-1.766,2.06-2.942,3.53-4.414c1.472-1.766,2.942-3.53,4.414-5.002c0.294-0.294,0.589-0.294,0.883,0
	c3.825,4.119,7.65,7.944,11.771,11.771C121.232,99.309,125.351,103.134,129.471,106.959z"/>
<path fill="#CC0000" d="M110.933,133.442c-0.883,1.766-1.472,2.942-2.354,4.708c-0.882,1.766-2.06,3.531-2.942,5.591
	c-0.294,0.295-0.588,0.295-0.883,0.295c-5.002-2.943-9.71-5.886-14.124-8.828c-4.708-3.236-9.416-7.062-14.124-10.888
	c0.883-2.06,1.766-3.236,2.942-5.296c1.178-2.06,2.354-3.825,3.825-5.885c0.295-0.295,0.589-0.295,0.883-0.295
	c4.414,3.531,8.828,7.063,13.242,10.594C101.517,126.674,106.225,130.205,110.933,133.442z"/>
<path fill="#CC0000" d="M102.4,148.155c-1.177,3.825-2.354,7.944-4.12,11.476c-3.53,8.828-7.944,15.596-18.243,10.005
	c-10.005-5.297-9.416-15.007-5.591-24.129c-2.354-1.471-4.708-2.942-6.768-4.414c0.883-1.765,1.471-3.825,2.354-5.591
	c0.883-2.06,2.06-4.119,3.237-6.179c0.294-0.294,0.588-0.589,0.883-0.294c4.413,3.53,9.121,6.768,13.829,10.004
	C92.984,142.27,97.692,145.212,102.4,148.155z M82.39,151.98c-0.588,1.766-0.883,3.237,2.061,5.002
	c3.236,1.766,3.53,1.766,4.708-0.588c0.294-0.589,0.294-0.883,0.588-1.472c-2.354-1.177-4.708-2.648-6.768-4.119
	C82.685,151.391,82.685,151.686,82.39,151.98z"/>
<path fill="#CC0000" d="M69.444,168.458c-2.061,3.53-4.12,7.062-5.297,10.887c-0.589,2.648,0,4.12,0.883,4.708
	c1.177,0.589,2.06-1.177,3.236-3.53c2.942-5.297,7.945-10.005,14.419-6.769c7.944,4.12,7.062,12.064,5.591,19.421
	c-0.883,4.12-2.06,8.239-3.531,12.358c-2.942-1.765-6.18-3.236-9.122-5.002c2.06-3.531,3.825-7.356,4.708-11.182
	c0.589-2.06,0.295-3.531-0.883-4.119c-0.883-0.295-2.06,1.471-3.236,3.825c-2.648,5.296-6.768,12.358-14.124,9.416
	c-9.122-4.12-9.122-14.713-7.063-22.657c1.472-5.003,2.942-9.711,5.002-14.125C63.264,163.75,66.207,166.104,69.444,168.458z"/>
<polygon fill="#FFFF99" points="336.92,255.263 333.977,260.265 340.157,262.619 "/>
<polygon fill="#FFFF99" points="296.901,177.579 304.258,182.582 305.729,173.166 "/>
<polygon fill="#FFFF99" points="261.591,312.348 256,319.704 266.887,321.764 "/>
<polygon fill="#FFFF99" points="328.68,282.628 327.21,291.161 332.212,291.161 333.977,287.042 "/>
<polygon fill="#FFFF99" points="189.499,314.701 196.266,319.704 192.736,326.766 190.97,323.235 186.85,320.587 "/>
<polygon fill="#FFFF99" points="250.998,333.533 243.641,334.122 244.23,338.536 247.467,339.419 "/>
<polygon fill="#FFFF99" points="287.191,319.115 293.076,324.706 284.543,324.117 "/>
<polygon fill="#FFFF99" points="245.701,162.279 244.23,169.341 252.469,167.869 248.055,164.927 249.526,162.279 "/>
<polygon fill="#FFFF99" points="216.57,154.628 218.042,160.808 223.044,158.159 219.512,157.865 219.512,154.628 "/>
<polygon fill="#FFFF99" points="268.358,184.642 268.653,190.527 274.832,190.233 "/>
<polygon fill="#CC9900" points="259.825,284.394 259.825,281.451 267.476,285.571 263.65,287.63 "/>
<polygon fill="#CC9900" points="300.432,281.156 298.079,286.453 311.614,300.577 313.969,300.577 "/>
<polygon fill="#934B5F" points="235.697,306.757 234.225,309.111 239.227,312.053 239.816,309.699 "/>
<path fill="#CC9900" d="M224.22,296.752l-1.766,6.18l11.771,6.179c0.589-0.883,0.883-1.177,1.472-2.354L224.22,296.752z"/>
<polygon fill="#660000" points="416.662,146.978 358.106,144.035 414.602,153.451 "/>
<polygon fill="#660000" points="365.757,148.155 421.371,157.865 418.722,161.985 "/>
<polygon fill="#660000" points="302.787,90.187 302.787,63.115 296.901,63.115 "/>
<polygon fill="#660000" points="298.373,84.596 289.545,60.761 284.248,65.175 "/>
<ellipse fill="#F5F1E6" cx="321.03" cy="62.821" rx="4.414" ry="5.885"/>
<ellipse fill="#F5F1E6" cx="401.95" cy="113.432" rx="6.179" ry="7.062"/>
<path fill="#63A5CB" d="M419.31,34.573c1.472-11.77,2.648-23.834,6.18-28.542c4.119-4.12,11.771-1.766,10.593,5.002
	C434.612,18.095,426.961,26.334,419.31,34.573z"/>
<path fill="#63A5CB" d="M463.154,90.187c12.064-5.297,23.835-9.71,33.251-7.65c7.65,2.942,6.474,7.062,0.883,12.064
	C486.989,96.072,475.512,94.012,463.154,90.187z"/>
<ellipse fill="#FFFFFF" cx="430.492" cy="8.385" rx="2.648" ry="2.943"/>
<ellipse fill="#FFFFFF" cx="495.816" cy="85.773" rx="2.648" ry="2.942"/>
</svg>
