<?xml version="1.0" encoding="utf-8"?>
<!-- Generator: Adobe Illustrator 16.0.0, SVG Export Plug-In . SVG Version: 6.00 Build 0)  -->
<!DOCTYPE svg PUBLIC "-//W3C//DTD SVG 1.1//EN" "http://www.w3.org/Graphics/SVG/1.1/DTD/svg11.dtd">
<svg version="1.1" id="Capa_2" xmlns="http://www.w3.org/2000/svg" xmlns:xlink="http://www.w3.org/1999/xlink" viewBox="0 0 512 512" xml:space="preserve">
<path fill="#FFFFFF" d="M509.25,232.528L509.25,232.528L509.25,232.528c-6.529-63.782-32.646-117.52-77.343-160.71
	C382.689,25.112,321.922,0,256.132,0v30.133V0c-10.547,0-21.093,0.502-32.142,2.008l0,0l0,0
	C163.22,9.542,106.47,39.676,64.283,86.382C22.599,132.586,0,190.34,0,249.1c0,0,1.005,227.02,1.005,231.522
	c0,17.503,15.37,30.133,30.133,30.133c6.862,0,230.015,0,230.015,0c91.403,0,164.728-55.243,202.395-106.973l0,0l0,0
	C499.708,352.557,514.773,296.811,509.25,232.528z M410.814,93.413c-2.512-2.512-5.021-4.52-7.533-7.032
	C405.793,88.893,408.302,90.902,410.814,93.413z M400.77,84.373c-2.01-1.506-3.515-3.013-5.525-4.52
	C397.254,81.36,398.76,82.866,400.77,84.373z M392.232,77.343c-1.507-1.507-3.516-2.512-5.524-4.019
	C388.717,74.329,390.223,75.836,392.232,77.343z M383.193,70.812c-2.01-1.505-3.517-2.51-5.525-3.515
	C379.677,68.302,381.183,69.307,383.193,70.812z M374.152,64.283c-2.008-1.003-4.019-2.51-6.026-3.515
	C370.134,62.275,372.144,63.28,374.152,64.283z M364.61,58.76c-2.008-1.005-4.52-2.512-6.528-3.515
	C360.594,56.248,362.602,57.755,364.61,58.76z M355.068,53.235c-3.014-1.505-6.027-3.012-9.542-4.519
	C348.54,50.223,352.054,51.73,355.068,53.235z M344.521,48.716c-3.516-1.507-7.03-3.014-10.546-4.52
	C337.491,45.702,341.006,47.209,344.521,48.716z M330.962,43.191c-2.512-1.003-5.525-2.008-8.035-3.013
	C325.94,41.182,328.45,42.187,330.962,43.191z M318.908,39.174c-2.51-0.503-5.021-1.507-7.532-2.01
	C313.886,37.667,316.398,38.169,318.908,39.174z M306.855,36.16c-2.512-0.503-5.021-1.005-7.533-1.507
	C302.336,34.654,304.847,35.156,306.855,36.16z M294.802,33.649c-2.512-0.502-5.021-1.003-7.533-1.003
	C289.78,32.645,292.29,33.147,294.802,33.649z M282.246,31.64c-2.51-0.502-5.523-0.502-8.035-1.005
	C276.722,31.138,279.736,31.138,282.246,31.64z M269.69,30.635c-3.515,0-7.03-0.501-10.044-0.501
	C262.66,30.134,266.176,30.134,269.69,30.635z M256.634,30.134c-3.014,0-6.027,0-9.041,0.501
	C250.104,30.134,253.118,30.134,256.634,30.134C256.132,30.134,256.132,30.134,256.634,30.134z M227.505,31.64
	c5.021-0.502,10.043-1.005,14.564-1.507C237.549,30.635,232.527,31.138,227.505,31.64z M30.133,249.1l1.005,231.021l0,0
	L30.133,249.1z M304.847,475.098c4.519-1.005,9.039-2.008,13.559-3.515C313.886,473.09,309.366,474.093,304.847,475.098z
	 M350.548,459.028c6.027-3.014,12.055-6.027,17.578-9.542C362.098,453,356.575,456.014,350.548,459.028z M379.175,442.455
	c10.547-7.032,20.591-15.067,29.632-23.604C399.765,427.388,389.721,435.423,379.175,442.455z M463.548,341.508
	c2.512-6.027,4.52-12.053,6.528-18.079C468.569,329.455,466.56,335.481,463.548,341.508z M478.613,285.26
	c1.005-6.528,1.507-13.058,1.507-19.586C479.618,272.202,479.116,278.732,478.613,285.26z"/>
<path fill="#CC6633" d="M30.133,249.1c0-104.964,85.378-202.896,197.372-216.958c80.354-9.542,141.124,21.596,183.309,61.773
	c39.174,37.667,62.776,85.377,68.302,141.122c4.521,56.25-7.533,104.964-40.177,150.666c-32.645,44.697-97.43,94.417-177.786,94.417
	H151.669V263.664c1.005-47.709,17.076-88.892,74.831-108.479c50.725-15.065,109.484,13.059,127.062,66.293
	c18.583,57.253-8.537,95.421-40.177,119.026c-31.641,23.604-81.359,23.604-114.004,1.004v73.827
	c21.596,10.044,48.716,13.058,68.302,12.053c71.315-10.044,126.56-50.222,149.661-110.989
	c24.105-64.787,7.533-139.618-43.191-186.323c-60.768-49.721-127.061-61.773-198.376-27.12
	c-49.719,25.109-84.373,76.839-92.91,133.087V480.12H31.138L30.133,249.1z"/>
</svg>
